<svg width="24" height="24" viewBox="0 0 24 24" fill="#000" xmlns="http://www.w3.org/2000/svg">
    <path fill-rule="evenodd" clip-rule="evenodd" d="M1 2V4H3L6.595 11.585L5.245 14.035C5.09 14.325 5 14.65 5 15C5 16.105 5.895 17 7 17H19V15H7.425C7.285 15 7.175 14.89 7.175 14.75C7.175 14.705 7.185 14.665 7.205 14.63L8.1 13H15.55C16.3 13 16.955 12.585 17.3 11.97L20.875 5.48C20.955 5.34 21 5.175 21 5C21 4.445 20.55 4 20 4H5.215L4.265 2H1ZM6.99 18C5.885 18 5 18.895 5 20C5 21.105 5.885 22 6.99 22C8.095 22 8.99 21.105 8.99 20C8.99 18.895 8.095 18 6.99 18ZM15 20C15 18.895 15.885 18 16.99 18C18.095 18 18.99 18.895 18.99 20C18.99 21.105 18.095 22 16.99 22C15.885 22 15 21.105 15 20Z" />
</svg>
